<svg xmlns="http://www.w3.org/2000/svg" viewBox="0 0 512 512">
  <defs>
    <linearGradient id="bg" x1="0%" y1="0%" x2="100%" y2="100%">
      <stop offset="0%" stop-color="#0000f5"/>
      <stop offset="100%" stop-color="#0010d0"/>
    </linearGradient>
  </defs>
  <!-- Rounded square background -->
  <rect width="512" height="512" rx="96" ry="96" fill="url(#bg)"/>
  <!-- "TJ" monogram — wide, heavy, geometric -->
  <!-- T -->
  <path d="M 68 116 L 248 116 L 248 176 L 192 176 L 192 396 L 124 396 L 124 176 L 68 176 Z" fill="white"/>
  <!-- J -->
  <path d="M 264 116 L 444 116 L 444 176 L 392 176 L 392 304 Q 392 352 366 376 Q 340 400 300 400 L 280 400 Q 248 400 224 380 L 224 320 Q 244 344 272 344 L 288 344 Q 308 344 318 332 Q 328 320 328 300 L 328 176 L 264 176 Z" fill="white"/>
</svg>
